# xmcd
#
# Track frame offsets:
#	150
#	28119
#	45271
#	60291
#	81480
#	99409
#	111588
#	122368
#	134667
#	151451
#	162244
#	176618
#	191103
#	209535
#	226052
#
# Disc length: 3122 seconds
#
# Revision: 1
# Processed by: cddbd v1.5.2PL0 Copyright (c) Steve Scherf et al.
# Submitted via: audiograbber 1.83.01
#
DISCID=c90c300f
DTITLE=Johnny Cash - Willie Nelson - VH1 Storytellers
DYEAR=1998
DGENRE=Country
TTITLE0=(Ghost) Riders In The Sky
TTITLE1=Worried Man
TTITLE2=Family Bible
TTITLE3=Don't Take Your Guns To Town
TTITLE4=Funny How Time Slips Away
TTITLE5=Flesh And Blood
TTITLE6=Crazy
TTITLE7=Unchained
TTITLE8=Night Life
TTITLE9=Drive On
TTITLE10=Me And Paul
TTITLE11=I Still Miss Someone
TTITLE12=Always On My Mind
TTITLE13=Folsom Prison Blues
TTITLE14=On The Road Again
EXTD=
EXTT0=
EXTT1=
EXTT2=
EXTT3=
EXTT4=
EXTT5=
EXTT6=
EXTT7=
EXTT8=
EXTT9=
EXTT10=
EXTT11=
EXTT12=
EXTT13=
EXTT14=
PLAYORDER=
